<?xml version="1.0" encoding="UTF-8"?>
<svg width="24px" height="22px" viewBox="0 0 24 22" version="1.1" xmlns="http://www.w3.org/2000/svg" xmlns:xlink="http://www.w3.org/1999/xlink">
    <!-- Generator: sketchtool 40.3 (33839) - http://www.bohemiancoding.com/sketch -->
    <title>8F4D7739-4C27-4EEF-B275-15FAC9B6FC82</title>
    <desc>Created with sketchtool.</desc>
    <defs></defs>
    <g id="Page-1" stroke="none" stroke-width="1" fill="none" fill-rule="evenodd">
        <g id="SVG" transform="translate(-118.000000, -111.000000)" fill="#FEFEFE">
            <g id="twitter" transform="translate(118.000000, 111.000000)">
                <path d="M1.15945192,18.8392189 C3.06684856,18.9889345 4.87511298,18.6462658 6.56721635,17.730477 C7.02085817,17.4849814 7.45288221,17.2055532 7.89828606,16.8531896 C7.11584375,16.8154682 6.41500721,16.6307057 5.76569952,16.2701515 C4.73335337,15.6968641 4.00459615,14.8555708 3.57721635,13.7474418 C3.50954327,13.5719843 3.50008894,13.501389 3.73639183,13.5382189 C4.31951923,13.6290957 4.90225962,13.6069755 5.56035817,13.4351955 C5.02870433,13.2858142 4.58556731,13.1276852 4.18384135,12.8770078 C2.86067788,12.0511485 2.06800721,10.8744301 1.87239663,9.30640073 C1.84840144,9.11433915 1.73605529,8.84934208 1.86128365,8.74787874 C1.9956899,8.63900484 2.19810096,8.85346525 2.37237019,8.92060601 C2.85592308,9.10687287 3.35302163,9.22098431 3.92940385,9.26594912 C3.5021899,8.91709574 3.12175,8.59766173 2.83430529,8.1886324 C1.70852163,6.58644765 1.5683101,4.89399897 2.3819351,3.11457375 C2.474875,2.91125704 2.5338125,2.87320132 2.7053726,3.07484648 C4.74070673,5.46672918 7.29414904,6.98516906 10.3543101,7.63111334 C10.9028822,7.74689633 11.4616274,7.80473211 12.019488,7.86334794 C12.2212356,7.88452096 12.3011827,7.84936261 12.2574495,7.61395205 C11.7763846,5.02343299 13.5539639,2.48629223 16.1537933,2.07035381 C17.7252572,1.81889633 19.1085745,2.24001657 20.2614495,3.35767346 C20.4128293,3.50443592 20.5468486,3.48331862 20.7080697,3.44459428 C21.5715096,3.2371544 22.3952524,2.92546525 23.1718341,2.49008108 C23.2439303,2.44968519 23.3176851,2.41235381 23.434399,2.35039486 C23.272625,2.92479662 23.0019327,3.39411334 22.6703678,3.83300777 C22.3399087,4.27034208 21.9369663,4.63056202 21.4200192,4.97908108 C22.3513534,4.86034501 23.1643702,4.61757962 23.9602476,4.29547111 C24.007851,4.43370865 23.9192236,4.49260308 23.8701827,4.56124824 C23.3225505,5.32682008 22.6786058,6.00017786 21.9309399,6.5678934 C21.7743077,6.68679662 21.7133798,6.80536554 21.7166418,7.00366759 C21.7696082,10.2142218 20.8268293,13.111694 18.9283341,15.6764154 C16.8170889,18.5285327 14.0001971,20.2475591 10.5037548,20.7968318 C7.10959615,21.3300576 3.93277644,20.7227262 1,18.895216 C1.01083654,18.7542482 1.09780529,18.8333685 1.15945192,18.8392189" id="Fill-1"></path>
            </g>
        </g>
    </g>
</svg>